<?xml version="1.0" standalone="no"?>
<!DOCTYPE svg PUBLIC "-//W3C//DTD SVG 20010904//EN"
 "http://www.w3.org/TR/2001/REC-SVG-20010904/DTD/svg10.dtd">
<svg version="1.0" xmlns="http://www.w3.org/2000/svg"
 width="1080.000000pt" height="1080.000000pt" viewBox="0 0 1080.000000 1080.000000"
 preserveAspectRatio="xMidYMid meet">
<metadata>
Created by potrace 1.14, written by Peter Selinger 2001-2017
</metadata>
<g transform="translate(0.000000,1080.000000) scale(0.100000,-0.100000)"
fill="#000000" stroke="none">
<path d="M5080 10537 c-3 -3 -59 -8 -125 -12 -66 -4 -136 -8 -155 -10 -19 -2
-75 -6 -125 -10 -49 -3 -101 -8 -115 -10 -14 -2 -54 -6 -90 -9 -36 -4 -76 -8
-90 -10 -14 -3 -61 -10 -105 -16 -44 -6 -91 -12 -105 -14 -14 -3 -43 -7 -65
-10 -22 -3 -50 -7 -61 -10 -12 -2 -39 -7 -60 -10 -172 -27 -574 -120 -800
-185 -200 -58 -523 -169 -629 -216 -16 -8 -58 -25 -93 -39 -112 -45 -144 -59
-362 -168 -231 -115 -293 -149 -298 -160 -2 -5 -8 -8 -12 -8 -12 0 -169 -95
-278 -169 -559 -375 -977 -822 -1231 -1312 -146 -283 -216 -506 -268 -859 -10
-69 -11 -409 -1 -470 4 -25 10 -70 14 -100 7 -69 63 -311 75 -326 5 -6 6 -13
3 -16 -9 -10 83 -246 147 -378 63 -128 168 -309 200 -346 11 -11 19 -24 19
-28 0 -16 68 -95 76 -88 5 4 6 3 2 -2 -11 -13 91 -144 193 -248 26 -27 44 -48
41 -48 -7 0 172 -174 249 -241 70 -62 177 -150 229 -189 19 -14 46 -36 62 -48
50 -42 401 -272 414 -272 7 0 14 -4 16 -8 2 -4 35 -25 73 -47 39 -21 85 -47
103 -57 61 -34 152 -78 158 -77 4 0 10 -3 13 -8 7 -9 30 -20 225 -109 76 -35
142 -61 147 -58 5 3 9 1 9 -4 0 -9 243 -107 265 -107 6 0 12 -3 15 -6 10 -11
366 -127 505 -164 33 -9 67 -18 75 -20 39 -11 309 -76 340 -81 14 -3 33 -7 42
-10 9 -3 26 -7 39 -9 12 -2 24 -7 27 -10 3 -2 5 -94 5 -203 l-1 -199 99 0 99
-1 0 185 0 186 38 -7 c20 -3 46 -8 57 -10 11 -2 47 -7 80 -12 33 -4 62 -8 65
-9 3 0 32 -5 65 -9 33 -4 74 -9 90 -12 101 -14 256 -29 415 -39 52 -4 97 -10
100 -15 3 -5 5 -169 5 -365 0 -223 4 -359 10 -363 5 -3 51 -6 102 -6 l92 -1 0
315 c0 173 0 338 0 365 l1 50 282 0 c247 1 465 7 618 20 25 2 83 6 130 10 47
3 96 8 110 10 14 2 52 7 85 10 33 3 71 8 85 10 14 2 48 6 75 10 92 11 179 24
265 39 46 8 86 14 87 12 2 -2 4 -144 6 -317 l2 -313 97 -1 c79 -1 97 2 100 15
2 8 4 158 3 334 0 311 0 319 20 326 11 5 83 23 160 41 77 18 145 34 150 35 6
2 19 5 30 8 130 33 191 51 193 58 2 4 7 6 12 3 5 -3 21 0 37 7 15 6 31 11 35
10 3 -1 33 8 65 19 32 11 66 22 76 24 9 2 22 7 28 10 5 4 23 9 38 11 l28 5 -1
-332 c-1 -182 1 -334 4 -339 3 -4 48 -7 100 -6 l95 1 1 375 c1 267 5 375 13
378 6 2 17 10 25 17 7 8 16 12 18 10 4 -5 241 90 284 113 10 6 37 18 59 27
165 71 565 287 565 306 0 6 4 7 10 4 5 -3 25 5 43 19 19 15 39 26 45 26 7 0
12 5 12 10 0 6 6 10 13 10 7 0 24 10 37 23 14 12 41 31 60 41 19 11 37 22 40
26 3 3 28 22 55 40 48 33 215 158 225 169 3 3 34 31 70 61 36 30 86 74 112 99
26 24 56 50 68 58 11 8 18 19 14 24 -3 5 0 8 7 7 7 -2 13 4 14 12 0 8 5 15 10
15 19 0 35 16 29 28 -4 7 -4 9 0 5 10 -8 47 23 40 34 -3 4 1 8 8 9 12 0 147
147 146 159 0 3 15 21 33 41 74 78 309 426 309 457 0 6 6 17 14 25 8 8 16 23
18 33 2 10 8 24 14 29 10 10 73 147 89 195 1 3 6 16 12 30 30 74 76 221 88
280 2 8 4 16 5 18 2 1 3 5 4 10 6 26 19 90 22 107 1 11 5 31 8 44 3 12 8 44
11 70 3 25 8 66 13 91 9 59 9 401 0 463 -5 26 -10 67 -13 92 -34 284 -179 671
-362 963 -58 94 -187 276 -217 308 -6 7 -27 31 -46 55 -79 97 -261 284 -369
379 -35 30 -73 64 -85 75 -12 11 -37 31 -55 45 -18 14 -38 30 -44 36 -29 26
-221 166 -302 221 -685 458 -1559 790 -2505 953 -36 6 -76 13 -90 16 -14 2
-45 6 -70 9 -25 3 -52 8 -60 10 -8 2 -40 6 -70 10 -30 3 -71 8 -90 11 -58 8
-97 12 -178 19 -42 4 -85 9 -94 11 -10 1 -69 6 -130 9 -62 4 -135 9 -163 12
-67 7 -759 16 -765 10z m640 -122 c113 -3 221 -8 240 -10 19 -1 71 -6 115 -10
229 -18 395 -38 593 -70 84 -14 155 -25 157 -25 3 0 5 -57 5 -126 l0 -126 -32
8 c-18 5 -80 7 -138 6 -81 -3 -114 -8 -150 -25 -38 -18 -69 -21 -209 -25
l-163 -4 -17 -30 c-26 -50 -62 -88 -80 -88 -9 0 -26 -7 -37 -15 -10 -8 -30
-15 -43 -15 -36 0 -111 47 -111 70 0 17 56 70 74 70 4 0 14 7 22 14 12 13 8
18 -33 36 -44 20 -150 53 -272 86 -29 8 -58 17 -63 20 -15 10 -113 6 -141 -5
-16 -6 -28 -21 -32 -40 -8 -36 -40 -71 -163 -175 -52 -43 -119 -103 -150 -132
-31 -30 -81 -69 -109 -86 -58 -36 -62 -44 -34 -53 21 -6 67 -49 96 -90 11 -16
26 -34 33 -41 28 -28 2 -113 -55 -178 -13 -15 -23 -29 -23 -34 0 -4 -13 -22
-29 -40 -31 -34 -74 -52 -127 -52 -19 0 -34 -6 -37 -15 -5 -10 -22 -14 -61
-14 -65 1 -77 -5 -72 -34 3 -12 5 -30 5 -39 1 -13 9 -18 30 -18 69 0 103 -82
60 -145 -31 -45 -46 -49 -114 -30 -31 9 -62 14 -69 12 -7 -3 -19 -35 -26 -71
-12 -63 -11 -66 13 -98 38 -49 89 -164 85 -190 -2 -15 -19 -31 -50 -48 -69
-37 -83 -52 -68 -80 20 -38 4 -104 -40 -159 -22 -27 -47 -52 -57 -56 -10 -4
-44 -36 -75 -71 l-58 -63 0 -186 c0 -182 1 -187 30 -263 48 -125 107 -203 122
-163 4 11 304 25 321 14 7 -4 23 -9 36 -11 30 -4 146 -44 195 -67 30 -14 36
-23 36 -49 0 -34 32 -110 57 -138 8 -9 32 -52 53 -94 37 -73 38 -80 33 -148
-9 -102 -9 -242 0 -305 4 -29 24 -92 46 -140 49 -111 62 -151 59 -188 -3 -40
12 -56 67 -78 45 -17 46 -16 130 13 62 21 81 32 73 40 -20 20 8 83 60 142 l49
55 77 -1 c43 -1 81 -5 87 -11 11 -11 0 -31 -162 -320 -258 -459 -349 -622
-349 -631 0 -10 91 -53 101 -47 4 3 103 176 220 385 l214 381 3 -1210 2 -1211
105 0 105 0 2 1221 3 1221 199 -334 c109 -183 200 -335 202 -337 6 -7 104 41
104 51 0 5 -22 45 -50 89 -27 44 -50 83 -50 85 0 2 -11 22 -25 45 -14 22 -109
179 -211 350 -158 265 -183 313 -170 322 8 7 40 30 70 52 64 47 76 73 76 167
l0 68 -37 -25 c-21 -14 -45 -28 -53 -32 -8 -4 -24 -15 -35 -25 -27 -25 -62
-33 -80 -18 -22 19 -18 27 19 40 50 16 116 78 137 128 22 52 25 129 5 176 -20
49 -82 113 -122 128 -19 6 -34 18 -34 26 0 16 74 154 93 174 7 7 24 30 39 50
16 20 37 40 48 43 17 5 20 15 20 66 l0 60 -30 -16 c-40 -21 -56 -19 -126 14
-45 21 -64 37 -76 62 -63 134 -124 254 -160 314 -39 67 -66 164 -67 248 -1 33
24 36 61 7 27 -21 137 -226 164 -306 9 -27 32 -81 50 -121 l34 -72 58 38 c31
21 82 50 112 65 30 15 57 31 60 35 3 4 40 27 83 51 42 24 77 49 77 56 0 21
-58 63 -103 74 -79 21 -90 31 -149 140 -31 58 -57 110 -57 117 -1 6 9 10 22 8
40 -6 182 -64 193 -80 6 -8 14 -12 17 -8 4 3 18 -2 32 -11 14 -9 25 -14 25
-11 0 3 17 -1 38 -9 20 -8 46 -17 57 -21 11 -4 52 -7 92 -8 55 -2 78 -7 100
-23 29 -22 122 -139 141 -177 14 -28 65 -188 65 -204 0 -7 3 -13 7 -13 4 0 12
-19 19 -42 7 -24 26 -60 42 -80 34 -44 36 -63 8 -79 -26 -14 -15 -25 33 -34
40 -8 41 -4 19 50 -9 20 -12 64 -9 131 4 92 7 105 34 143 16 22 70 75 121 116
73 59 103 77 151 90 91 23 99 21 107 -24 4 -24 18 -49 36 -67 16 -15 29 -34
29 -43 0 -8 3 -12 6 -8 7 7 84 -62 84 -75 0 -5 11 -24 24 -41 13 -18 33 -50
44 -72 33 -66 64 -90 147 -112 l75 -20 6 26 c3 14 7 31 8 36 2 6 -7 31 -20 57
-29 58 -33 178 -8 251 16 48 44 64 44 26 0 -16 4 -19 18 -14 38 16 129 45 154
50 20 4 34 17 48 44 11 22 30 47 43 58 35 27 39 40 24 65 -9 14 -17 63 -20
128 -4 78 -12 122 -31 173 -36 95 -35 111 16 143 39 25 45 26 86 15 41 -11
177 -112 166 -124 -3 -2 4 -7 16 -10 18 -5 20 0 20 39 0 52 59 231 92 281 21
31 26 33 60 27 26 -4 46 -1 65 11 25 15 28 21 25 63 -3 43 1 53 43 111 44 59
46 65 39 109 -11 77 -20 92 -53 92 -56 0 -91 12 -91 30 0 35 143 270 165 270
14 0 270 -152 389 -232 335 -225 618 -475 847 -749 95 -115 109 -134 184 -244
283 -415 430 -872 429 -1335 0 -91 -10 -253 -18 -295 -2 -11 -7 -40 -11 -65
-65 -400 -260 -812 -554 -1175 -36 -44 -70 -85 -76 -91 -5 -6 -47 -52 -93
-102 -245 -267 -602 -543 -999 -772 -109 -62 -454 -240 -467 -240 -2 0 -33
-13 -68 -29 -67 -31 -258 -111 -264 -111 -2 0 -4 371 -4 825 0 454 4 825 9
825 4 0 97 -149 205 -331 109 -181 200 -329 204 -327 4 2 28 13 54 26 l47 22
-43 73 c-23 39 -134 225 -246 412 -112 187 -221 369 -242 405 -76 129 -111
124 -196 -30 -29 -53 -310 -555 -379 -675 -18 -33 -39 -70 -45 -82 -6 -13 -14
-23 -17 -23 -4 0 -114 180 -245 399 -131 220 -244 402 -253 405 -33 13 -62 5
-81 -21 -15 -23 -164 -285 -290 -513 -14 -25 -74 -133 -135 -240 -60 -107
-125 -222 -143 -256 l-34 -60 45 -22 c57 -27 67 -27 81 1 6 12 102 186 215
385 l204 364 3 -958 c1 -526 1 -959 -1 -961 -2 -2 -75 -14 -163 -28 -157 -24
-191 -29 -289 -40 -27 -3 -85 -10 -129 -15 -43 -5 -120 -12 -170 -16 -50 -3
-102 -8 -116 -10 -86 -14 -853 -25 -865 -12 -3 3 -4 388 -3 857 l3 851 135
-226 c74 -124 142 -238 150 -253 8 -14 39 -65 68 -113 58 -96 57 -95 128 -51
l30 18 -277 465 c-153 256 -287 475 -298 488 -43 49 -82 24 -149 -98 -72 -132
-103 -186 -112 -200 -5 -8 -19 -33 -31 -55 -12 -22 -104 -187 -205 -366 -101
-179 -186 -333 -189 -342 -5 -12 6 -22 44 -41 l50 -26 34 58 c18 31 116 204
217 384 101 180 186 326 188 323 3 -3 6 -379 6 -836 l1 -830 -90 6 c-49 3
-110 8 -135 10 -25 3 -70 7 -100 10 -30 3 -71 7 -90 10 -19 3 -60 7 -90 10
-84 8 -394 56 -400 62 -8 7 -7 2062 1 2058 6 -4 85 -131 99 -160 11 -23 294
-491 301 -499 7 -7 69 16 107 40 7 5 -561 950 -581 967 -12 11 -31 17 -44 14
-17 -3 -23 0 -23 13 0 9 3 20 8 24 4 4 7 11 7 14 2 27 32 82 45 82 28 1 95 37
129 71 64 64 83 156 50 243 -62 166 -276 201 -393 64 -34 -39 -35 -39 -90 -34
-56 5 -158 48 -201 84 -17 14 -76 110 -137 222 -80 147 -106 173 -150 153 -13
-6 -34 -33 -48 -62 -14 -28 -29 -51 -33 -51 -5 0 -21 8 -35 19 -65 45 -167 89
-319 136 -9 3 -10 0 -3 -13 15 -25 102 -252 145 -377 l39 -111 -99 -189 c-53
-105 -138 -267 -187 -361 l-89 -172 47 -26 c26 -15 52 -25 57 -23 8 2 99 172
259 485 29 56 56 102 61 102 11 0 20 -28 77 -224 l50 -172 0 -1043 0 -1043
-27 7 c-151 37 -622 229 -868 352 -226 113 -486 263 -600 345 -301 217 -425
319 -605 498 -281 279 -501 590 -638 902 -226 514 -258 1046 -96 1568 149 478
444 909 898 1313 60 53 113 97 117 97 5 0 8 -21 8 -47 -1 -27 4 -104 11 -173
15 -163 42 -226 138 -319 37 -37 93 -98 124 -137 31 -39 78 -90 104 -113 55
-48 137 -165 155 -219 31 -96 109 -209 162 -236 25 -11 60 -18 100 -18 66 -1
102 -16 146 -63 23 -24 35 -29 76 -26 32 3 109 -86 163 -189 117 -222 178
-323 195 -326 24 -3 22 8 -14 79 -18 34 -41 80 -52 102 -11 22 -45 76 -75 120
-42 59 -57 90 -59 120 -1 22 -7 65 -14 95 -6 30 -9 62 -7 70 2 12 -11 16 -62
20 l-65 5 0 92 c0 58 -4 89 -10 85 -5 -3 -28 -19 -50 -36 -32 -26 -48 -31 -92
-31 -65 0 -87 19 -109 95 -18 62 -29 210 -17 225 4 6 35 23 68 39 53 25 74 29
186 34 146 6 169 2 203 -35 l25 -26 7 29 c4 16 8 54 8 84 1 38 5 54 14 53 6
-2 12 1 12 6 0 5 15 18 33 28 28 18 34 29 54 109 14 55 30 95 42 104 112 88
141 114 147 133 4 12 19 32 33 44 26 23 130 63 162 63 28 0 31 16 14 72 -23
74 -44 160 -45 181 0 14 9 17 55 17 66 0 115 -22 137 -61 11 -18 38 -39 70
-54 70 -33 82 -32 73 2 -7 30 -28 62 -93 142 -35 43 -42 58 -37 81 5 22 0 35
-25 63 -16 19 -41 38 -54 41 -16 4 -41 34 -77 91 -48 75 -57 85 -84 85 -16 0
-46 4 -65 10 -38 10 -105 69 -115 101 -4 10 -11 19 -16 19 -6 0 -8 4 -5 8 5 9
-140 10 -149 1 -10 -11 -6 -142 6 -196 9 -41 16 -53 30 -53 33 0 21 -35 -26
-78 -41 -37 -45 -45 -45 -86 0 -40 -3 -46 -21 -46 -12 0 -53 29 -94 65 -41 37
-91 71 -116 80 -23 9 -50 22 -59 29 -8 8 -34 23 -57 35 -45 23 -58 39 -84 114
-21 57 -29 50 141 130 341 161 623 266 1040 387 25 8 51 15 58 16 18 3 15 -42
-4 -61 -26 -25 -20 -136 11 -202 43 -94 125 -192 188 -225 22 -10 40 -18 41
-16 1 2 23 62 47 133 l45 130 135 70 c150 78 212 116 312 189 71 54 73 57 51
138 -5 17 6 21 101 33 83 11 119 16 145 20 14 2 57 7 95 10 39 3 81 8 95 10
14 3 66 7 115 11 50 3 106 7 125 9 19 2 132 7 250 11 118 4 216 7 217 8 3 2
201 -2 413 -9z m-1935 -6563 c-9 -9 -510 109 -525 124 -5 6 -8 1144 -2 1144 1
0 20 -9 42 -20 22 -11 41 -20 44 -20 4 0 43 68 146 255 18 33 41 74 50 90 10
17 28 48 40 70 120 215 165 295 184 325 l21 35 3 -999 c1 -550 0 -1002 -3
-1004z m4139 1106 c0 -475 -2 -866 -3 -871 0 -4 -4 -6 -8 -6 -18 3 -73 -14
-73 -23 0 -5 -4 -7 -8 -4 -7 4 -65 -12 -112 -31 -8 -3 -21 -7 -28 -9 -8 -1
-21 -6 -30 -10 -9 -4 -24 -8 -32 -9 -8 -2 -81 -21 -162 -44 -81 -22 -155 -43
-165 -44 -70 -14 -94 -20 -99 -28 -3 -5 -9 -7 -14 -4 -5 3 -34 -1 -64 -8 -29
-8 -58 -12 -63 -8 -6 4 -11 1804 -4 1881 1 15 20 -7 44 -53 7 -12 78 -133 160
-268 81 -136 147 -253 147 -261 0 -8 -7 -23 -15 -34 -16 -21 -20 -38 -6 -30 5
3 11 -1 15 -9 3 -8 12 -15 21 -15 8 0 25 -6 36 -12 17 -11 23 -10 26 0 8 22
69 73 77 65 3 -4 6 -2 6 3 0 6 -5 15 -12 22 -12 12 -13 11 52 127 13 22 34 60
48 85 13 25 33 59 43 76 10 17 16 34 12 37 -3 4 -2 7 4 7 6 0 20 17 31 38 11
20 33 60 48 88 16 28 49 87 74 132 25 45 47 82 50 82 4 0 5 -388 4 -862z"/>
<path d="M4653 9452 c-73 -105 -74 -96 14 -137 43 -20 88 -38 100 -41 13 -4
23 -11 23 -18 1 -6 7 0 15 14 20 35 19 86 -3 107 -10 10 -33 39 -50 64 -51 76
-53 76 -99 11z"/>
<path d="M3065 7748 c-81 -29 -141 -108 -152 -197 -7 -62 10 -114 55 -170 45
-55 106 -83 179 -82 209 2 307 257 154 400 -59 55 -160 76 -236 49z"/>
<path d="M8681 7683 c-7 -13 -5 -25 6 -44 15 -24 18 -26 54 -16 48 12 49 29 5
56 -41 26 -52 26 -65 4z"/>
<path d="M9296 7336 c-47 -78 -46 -70 -24 -104 11 -18 17 -32 14 -32 -3 0 2
-8 12 -18 9 -9 24 -28 33 -42 14 -21 19 -23 45 -13 16 6 54 16 84 22 79 17 92
29 82 77 -7 32 -17 45 -62 76 -30 20 -71 39 -90 43 -19 3 -45 9 -57 12 -16 3
-26 -2 -37 -21z"/>
<path d="M8835 7138 c-14 -29 -14 -34 5 -65 11 -19 18 -38 15 -43 -7 -12 69
-3 111 12 67 24 29 83 -71 114 l-44 13 -16 -31z"/>
<path d="M9612 7006 c-13 -13 -41 -29 -62 -35 -22 -6 -45 -17 -52 -24 -50 -47
-166 -144 -233 -195 -114 -86 -173 -145 -198 -199 -12 -27 -30 -59 -38 -73
-31 -49 6 -277 49 -304 6 -4 16 3 22 14 20 37 70 60 130 60 30 0 93 9 139 20
95 23 111 21 254 -22 94 -29 97 -30 97 -59 0 -41 32 -100 75 -137 40 -36 35
-35 130 -19 l69 12 32 57 c18 32 37 72 43 90 22 70 39 163 30 166 -5 2 -9 25
-9 51 0 27 -8 63 -20 86 -11 22 -20 54 -20 73 0 37 -27 96 -75 162 -35 48 -39
87 -21 190 l8 45 -38 -41 c-22 -23 -59 -56 -83 -74 -42 -33 -44 -33 -89 -21
-25 7 -61 19 -79 28 l-33 15 6 79 c4 45 3 79 -2 78 -5 0 -20 -11 -32 -23z"/>
<path d="M7960 6781 c-105 -34 -170 -118 -170 -220 0 -64 14 -105 51 -152 133
-168 409 -71 409 145 0 92 -44 167 -123 207 -44 23 -128 33 -167 20z"/>
<path d="M6867 6686 c-82 -30 -136 -99 -152 -193 -14 -84 41 -186 125 -232
145 -81 340 36 340 205 0 78 -60 173 -133 211 -43 22 -134 26 -180 9z"/>
<path d="M4933 6336 c-161 -52 -216 -246 -107 -375 86 -102 263 -102 349 1 40
47 55 89 55 153 0 59 -24 120 -64 163 -52 58 -156 83 -233 58z"/>
<path d="M2883 2053 c-13 -2 -23 -9 -23 -14 0 -6 -4 -8 -10 -4 -23 14 -176
-77 -164 -97 4 -6 3 -8 -3 -5 -11 7 -65 -48 -56 -57 4 -3 1 -6 -4 -6 -11 0
-74 -94 -77 -115 -1 -5 -8 -20 -14 -33 -7 -12 -10 -27 -7 -32 3 -6 2 -10 -3
-10 -9 0 -35 -81 -47 -145 -3 -16 -7 -42 -10 -57 -29 -153 -27 -537 2 -633 4
-11 7 -27 8 -35 3 -41 19 -100 26 -100 5 0 6 -7 3 -15 -4 -8 -2 -15 2 -15 5 0
10 -12 11 -26 0 -15 7 -30 15 -35 7 -5 9 -9 5 -9 -11 0 73 -160 85 -160 5 0 6
-4 3 -10 -3 -5 3 -15 15 -22 11 -7 20 -19 20 -26 0 -7 4 -11 9 -7 5 3 12 -4
16 -15 4 -11 10 -18 15 -15 4 3 11 -2 14 -11 4 -9 9 -14 12 -11 3 3 14 -3 25
-14 11 -11 24 -17 29 -14 4 3 10 2 12 -3 5 -13 100 -40 136 -38 17 1 32 -2 32
-6 0 -10 84 -11 93 -2 4 4 25 8 47 10 23 2 54 11 70 19 17 9 31 14 33 13 5 -5
90 65 110 89 10 13 25 29 32 37 8 7 11 16 8 20 -4 3 -2 6 4 6 13 0 85 149 78
161 -4 5 -2 9 3 9 7 0 32 79 37 120 1 8 5 22 8 30 3 8 8 32 12 52 l6 37 -81
40 c-44 22 -80 36 -80 33 0 -4 -4 -2 -8 3 -8 12 -64 39 -74 37 -5 -1 -8 3 -8
9 0 5 -4 8 -9 4 -5 -3 -12 -1 -16 5 -14 23 -23 6 -39 -76 -9 -47 -26 -104 -37
-125 -10 -21 -16 -39 -12 -39 4 0 -3 -7 -15 -16 -12 -8 -20 -20 -16 -25 3 -5
2 -8 -3 -7 -4 1 -19 -5 -33 -15 -27 -17 -130 -29 -130 -14 0 5 -5 7 -12 5 -19
-7 -92 84 -107 132 -7 25 -16 52 -18 60 -11 32 -15 111 -17 265 -1 181 7 276
30 338 8 23 16 48 16 55 1 6 5 12 9 12 4 0 10 8 14 19 15 49 81 91 143 91 46
0 98 -24 113 -51 6 -11 15 -17 22 -13 7 4 9 4 5 -1 -4 -4 0 -22 9 -39 9 -17
18 -35 19 -41 8 -45 26 -95 34 -95 6 0 10 4 10 9 0 5 6 8 13 7 19 -2 121 36
129 48 4 6 8 8 8 4 0 -6 56 10 100 29 8 3 18 5 23 5 9 -2 9 22 0 32 -4 4 -9
19 -10 34 -5 38 -64 206 -75 213 -5 3 -9 10 -7 14 4 13 -82 135 -92 130 -5 -4
-9 0 -9 8 0 14 -50 54 -59 48 -2 -1 -7 2 -10 8 -4 5 -29 20 -56 32 -39 17 -73
22 -155 24 -58 1 -115 0 -127 -2z"/>
<path d="M6970 2044 c-30 -8 -75 -27 -100 -41 -51 -31 -163 -140 -155 -153 3
-5 -1 -12 -9 -17 -49 -29 -127 -278 -143 -456 -13 -158 -4 -501 14 -531 3 -5
8 -27 10 -49 2 -21 6 -44 10 -51 4 -6 9 -19 10 -29 7 -46 69 -184 112 -249 42
-64 127 -152 149 -153 4 -1 21 -8 37 -17 40 -20 131 -42 150 -34 8 3 15 0 15
-6 0 -10 73 -7 130 6 14 3 35 8 46 10 36 7 114 46 114 56 0 6 4 9 8 8 13 -5
82 74 75 85 -3 6 -1 7 5 3 12 -7 25 15 78 124 24 50 84 262 84 297 0 8 -58 41
-146 83 -80 39 -147 70 -149 70 -1 0 -6 -21 -10 -47 -12 -87 -56 -201 -89
-237 -37 -38 -65 -50 -118 -48 -108 5 -165 81 -191 261 -17 112 -13 456 5 487
3 5 9 25 13 44 10 45 38 110 47 110 5 0 8 6 8 13 0 20 68 60 113 67 27 4 53 1
72 -8 29 -13 86 -67 94 -87 2 -6 8 -21 13 -35 5 -14 12 -40 15 -57 3 -18 10
-33 15 -33 5 0 6 -4 3 -10 -3 -5 -5 -10 -3 -10 3 0 100 36 128 47 8 3 24 8 35
10 11 2 22 8 23 13 2 6 7 8 12 5 4 -3 29 4 55 15 35 15 45 24 42 37 -3 10 -11
41 -17 68 -7 28 -17 54 -21 60 -5 5 -9 17 -9 27 0 21 -31 90 -45 100 -5 4 -7
8 -3 8 13 0 -50 95 -90 137 -44 47 -97 85 -106 76 -3 -3 -6 -2 -6 4 0 9 -18
16 -85 30 -53 12 -194 10 -245 -3z"/>
<path d="M1352 2032 c-35 -2 -62 -6 -60 -10 2 -4 16 -40 32 -80 16 -39 33 -72
38 -72 5 0 7 -4 4 -9 -5 -7 10 -46 78 -206 7 -16 24 -56 36 -87 13 -32 28 -58
32 -58 5 0 7 -4 3 -9 -5 -9 13 -59 25 -71 3 -3 6 -9 7 -15 3 -15 87 -219 93
-225 3 -3 7 -14 8 -25 2 -11 7 -24 11 -30 4 -5 16 -30 27 -55 17 -41 19 -80
24 -420 l5 -374 150 -1 c83 0 157 1 166 3 15 3 17 38 17 365 l-1 362 31 73
c17 39 28 72 24 72 -4 0 -2 4 5 8 6 4 13 16 15 27 1 11 5 22 8 25 13 13 40 82
35 91 -4 5 -2 9 4 9 7 0 31 53 36 80 0 3 9 20 18 38 10 18 15 37 12 42 -3 6
-3 10 2 10 6 0 44 77 49 100 1 5 3 11 57 137 20 44 33 84 30 87 -4 3 -1 6 5 6
7 0 11 3 10 8 -1 4 4 18 9 32 15 34 30 74 31 80 1 3 10 23 21 45 10 22 18 41
17 42 -3 3 -137 5 -271 4 l-101 -1 -17 -46 c-9 -25 -14 -51 -10 -57 3 -5 2 -7
-3 -4 -9 5 -39 -73 -34 -89 1 -4 -4 -10 -10 -14 -7 -4 -13 -19 -13 -34 -1 -14
-5 -26 -8 -26 -3 0 -16 -30 -28 -67 -13 -38 -29 -81 -36 -98 -7 -16 -20 -51
-30 -77 -10 -27 -21 -48 -24 -48 -4 0 -26 51 -50 113 -81 213 -103 272 -123
327 -11 30 -24 63 -29 72 -5 10 -9 24 -9 32 0 12 -24 15 -127 18 -71 2 -156 2
-191 0z"/>
<path d="M3659 2015 c0 -11 -1 -404 -2 -872 -2 -847 -2 -853 18 -854 11 -1 88
-2 171 -3 l150 -1 0 355 -1 355 145 -2 c80 -1 161 -2 181 -2 l36 -1 -1 -350
c-1 -227 3 -350 9 -351 6 -1 83 -2 171 -2 l161 -2 0 873 0 872 -171 -2 -170
-3 0 -297 c1 -164 -2 -299 -5 -299 -3 -1 -84 -2 -178 -3 -110 -1 -174 2 -176
9 -1 5 -2 142 -1 303 l1 292 -86 1 c-47 0 -123 1 -169 2 -76 2 -82 0 -83 -18z"/>
<path d="M5208 2032 l-288 -2 0 -869 c0 -819 1 -869 18 -873 14 -3 274 -3 308
1 7 1 11 106 11 345 0 189 3 348 6 353 7 11 36 11 55 -1 6 -4 12 -4 12 -1 0 3
13 -8 28 -25 16 -17 39 -61 52 -98 13 -37 27 -73 33 -79 5 -7 7 -13 3 -13 -3
0 0 -17 8 -37 17 -47 27 -77 27 -80 -1 -3 7 -24 35 -98 4 -11 8 -24 9 -30 10
-39 79 -231 85 -235 7 -4 326 -5 366 -1 13 1 -6 71 -19 71 -5 0 -6 4 -2 9 3 5
-1 27 -8 48 -8 21 -20 56 -27 78 -7 22 -17 51 -23 65 -6 14 -11 30 -11 35 -4
30 -42 135 -49 135 -4 0 -6 4 -2 9 7 12 -27 104 -67 178 -33 63 -58 101 -58
91 0 -4 -12 4 -26 17 -15 14 -32 25 -38 25 -12 1 12 17 29 20 23 5 115 78 115
92 0 5 9 18 20 30 10 12 17 25 14 30 -3 4 -1 8 4 8 8 0 46 99 58 150 10 46 12
270 2 313 -5 23 -12 53 -14 66 -3 14 -8 29 -12 35 -4 6 -7 13 -7 16 -1 19 -29
69 -36 64 -5 -3 -9 4 -9 15 0 20 -75 98 -91 94 -5 -2 -9 1 -9 6 0 12 -71 30
-150 39 -36 4 -194 6 -352 4z m290 -378 c37 -21 51 -50 58 -118 10 -86 -30
-186 -73 -186 -7 0 -13 -3 -13 -7 0 -5 -17 -9 -38 -11 -62 -6 -156 -9 -167 -5
-8 3 -12 229 -6 333 1 23 198 19 239 -6z"/>
<path d="M8934 2032 l-82 -3 0 -214 c-1 -194 1 -215 16 -216 9 0 87 -1 171 -2
l155 -2 0 -652 c0 -359 3 -653 6 -654 3 0 78 -2 168 -3 138 -1 162 1 163 14 0
8 1 303 1 656 l1 641 151 1 c83 0 160 1 171 1 20 1 20 7 20 216 l0 215 -145 0
c-80 0 -273 2 -430 3 -157 1 -322 1 -366 -1z"/>
<path d="M7771 1158 l0 -873 157 1 c86 1 163 2 170 3 9 1 12 78 12 352 l0 351
38 -4 c20 -1 45 -10 55 -18 18 -14 59 -83 63 -105 2 -13 32 -105 41 -125 3 -8
7 -18 8 -22 2 -5 3 -9 5 -10 1 -2 3 -10 5 -19 5 -27 99 -304 105 -309 3 -3 5
-9 6 -15 0 -5 4 -24 8 -42 10 -38 9 -38 226 -38 l165 0 -3 25 c-2 14 -8 27
-13 28 -5 2 -7 8 -4 12 3 5 -1 26 -9 47 -8 21 -17 47 -22 58 -4 11 -8 25 -9
30 -2 6 -26 85 -55 175 -54 171 -132 340 -157 340 -8 0 -12 4 -9 9 6 8 -21 26
-36 23 -3 -1 -8 5 -11 12 -4 9 7 20 29 31 19 9 34 20 34 25 0 6 4 9 9 7 17 -4
106 105 94 117 -3 3 -1 6 5 6 11 0 45 83 57 140 22 102 13 363 -13 404 -3 6
-7 16 -8 23 -8 51 -123 201 -144 188 -5 -3 -10 0 -12 6 -2 7 -13 13 -24 13
-11 1 -26 6 -34 11 -9 6 -169 11 -372 13 l-357 3 0 -873z m577 498 c47 -24 65
-74 60 -167 -7 -123 -52 -160 -202 -164 -104 -2 -96 -16 -96 174 0 92 2 170 4
172 3 2 49 4 103 3 70 -1 107 -6 131 -18z"/>
<path d="M6028 1018 c-2 -7 -4 -56 -3 -108 l0 -95 208 -3 207 -2 0 109 0 110
-204 1 c-156 0 -205 -3 -208 -12z"/>
</g>
</svg>
